{"title":"101 Dalmatians [1961] BRRip XviD - CODY","uid":7522689,"size":752769911,"categoryP":"video","categoryS":"movies","magnet":"?xt=urn:btih:1ea4613cf82f0596708a05c5ecd4ab201923c7cc&amp;dn=101+Dalmatians+%5B1961%5D+BRRip+XviD+-+CODY&amp;tr=udp%3A%2F%2Ftracker.openbittorrent.com%3A80&amp;tr=udp%3A%2F%2Fopen.demonii.com%3A1337&amp;tr=udp%3A%2F%2Ftracker.coppersurfer.tk%3A6969&amp;tr=udp%3A%2F%2Fexodus.desync.com%3A6969","seeders":19,"leechers":2,"uploader":"CODYBOSS1969","files":6,"time":1344677689,"description":"General\nComplete name                            : 101 Dalmatians [1961] BRRip XviD - CODY.avi\nFormat                                   : AVI\nFormat/Info                              : Audio Video Interleave\nFile size                                : 717 MiB\nDuration                                 : 1h 19mn\nOverall bit rate                         : 1 265 Kbps\nWriting application                      : VirtualDubMod 1.5.10.3 | www.virtualdub-fr.org || (build 2550/release)\nWriting library                          : VirtualDubMod build 2550/release\n\nVideo\nID                                       : 0\nFormat                                   : MPEG-4 Visual\nFormat profile                           : Advanced Simple@L5\nFormat settings, BVOP                    : 4\nFormat settings, QPel                    : No\nFormat settings, GMC                     : No warppoints\nFormat settings, Matrix                  : Default (H.263)\nCodec ID                                 : XVID\nCodec ID/Hint                            : XviD\nDuration                                 : 1h 19mn\nBit rate                                 : 1 128 Kbps\nWidth                                    : 720 pixels\nHeight                                   : 536 pixels\nDisplay aspect ratio                     : 4:3\nFrame rate                               : 23.976 fps\nColor space                              : YUV\nChroma subsampling                       : 4:2:0\nBit depth                                : 8 bits\nScan type                                : Progressive\nCompression mode                         : Lossy\nBits/(Pixel*Frame)                       : 0.122\nStream size                              : 640 MiB (89%)\nWriting library                          : XviD 65\n\nAudio\nID                                       : 1\nFormat                                   : MPEG Audio\nFormat version                           : Version 1\nFormat profile                           : Layer 3\nCodec ID                                 : 55\nCodec ID/Hint                            : MP3\nDuration                                 : 1h 19mn\nBit rate mode                            : Constant\nBit rate                                 : 128 Kbps\nChannel(s)                               : 2 channels\nSampling rate                            : 48.0 KHz\nCompression mode                         : Lossy\nStream size                              : 72.6 MiB (10%)\nAlignment                                : Aligned on interleaves\nInterleave, duration                     : 42 ms (1.00 video frame)\nInterleave, preload duration             : 504 ms\nWriting library                          : LAME3.99r\nEncoding settings                        : -m s -V 4 -q 2 -lowpass 17 -b 128\n\n\nIMDB link:                                &lt;a href=&quot; http://www.imdb.com/title/tt0055254/&quot; rel=&quot;nofollow&quot; target=&quot;_NEW&quot;&gt; http://www.imdb.com/title/tt0055254/&lt;/a&gt;\n\n\nSubtitles included                       : English, Romanian\n\n\nPlease seed at least 1,5:1. This way this torrent has a chance to survive!\n\n\nThanks. Enjoy! \t\t","torrent":{"xt":"urn:btih:1ea4613cf82f0596708a05c5ecd4ab201923c7cc","amp;dn":"101+Dalmatians+%5B1961%5D+BRRip+XviD+-+CODY","amp;tr":["udp%3A%2F%2Ftracker.openbittorrent.com%3A80","udp%3A%2F%2Fopen.demonii.com%3A1337","udp%3A%2F%2Ftracker.coppersurfer.tk%3A6969","udp%3A%2F%2Fexodus.desync.com%3A6969"],"infoHash":"1ea4613cf82f0596708a05c5ecd4ab201923c7cc","infoHashBuffer":{"type":"Buffer","data":[30,164,97,60,248,47,5,150,112,138,5,197,236,212,171,32,25,35,199,204]},"announce":[],"urlList":[]}}